<svg width="18" height="8" viewBox="0 0 18 8" fill="none" xmlns="http://www.w3.org/2000/svg">
<path d="M1 1C1.76321 1.96131 2.6623 2.79696 3.66667 3.47846L1 1ZM17 1C16.2368 1.96131 15.3377 2.79696 14.3333 3.47846L17 1ZM7.22222 4.97754L6.77778 7L7.22222 4.97754ZM7.22222 4.97846C8.39665 5.21301 9.60335 5.21301 10.7778 4.97846H7.22222ZM7.22222 4.97846C5.95506 4.72098 4.74774 4.21164 3.66667 3.47846L7.22222 4.97846ZM10.7778 4.97754L11.2222 7L10.7778 4.97754ZM10.7778 4.97846C12.0449 4.72098 13.2523 4.21164 14.3333 3.47846L10.7778 4.97846ZM14.3333 3.47846L15.6667 5.15385L14.3333 3.47846ZM3.66667 3.47846L2.33333 5.15385L3.66667 3.47846Z" fill="#C3C3C3"/>
<path d="M1 1C1.76321 1.96131 2.6623 2.79696 3.66667 3.47846M3.66667 3.47846C4.74774 4.21164 5.95506 4.72098 7.22222 4.97846C8.39665 5.21301 9.60335 5.21301 10.7778 4.97846C12.0449 4.72098 13.2523 4.21164 14.3333 3.47846M3.66667 3.47846L2.33333 5.15385M17 1C16.2368 1.96131 15.3377 2.79696 14.3333 3.47846M14.3333 3.47846L15.6667 5.15385M7.22222 4.97754L6.77778 7M10.7778 4.97754L11.2222 7" stroke="#C3C3C3" stroke-width="2" stroke-linecap="round" stroke-linejoin="round"/>
</svg>
