<svg width="12" height="9" viewBox="0 0 12 9" fill="none" xmlns="http://www.w3.org/2000/svg">
<path fill-rule="evenodd" clip-rule="evenodd" d="M2 0H10C10.8221 0 11.4935 0.667355 11.5 1.48802C11.5001 1.49496 11.5001 1.5019 11.5 1.50883V7.5C11.5 8.32614 10.8261 9 10 9H2C1.17386 9 0.5 8.32614 0.5 7.5V1.5C0.5 0.673858 1.17386 0 2 0ZM10.4467 1.277C10.364 1.11347 10.194 1 10 1H2C1.80603 1 1.63599 1.11345 1.5533 1.27695L6.00004 4.38967L10.4467 1.277ZM1.5 2.4603L5.71331 5.40962C5.88547 5.53013 6.11461 5.53013 6.28677 5.40962L10.5 2.46036V7.5C10.5 7.77386 10.2739 8 10 8H2C1.72614 8 1.5 7.77386 1.5 7.5V2.4603Z" fill="#9AA3AB"/>
<mask id="mask0_928_1550" style="mask-type:luminance" maskUnits="userSpaceOnUse" x="0" y="0" width="12" height="9">
<path fill-rule="evenodd" clip-rule="evenodd" d="M2 0H10C10.8221 0 11.4935 0.667355 11.5 1.48802C11.5001 1.49496 11.5001 1.5019 11.5 1.50883V7.5C11.5 8.32614 10.8261 9 10 9H2C1.17386 9 0.5 8.32614 0.5 7.5V1.5C0.5 0.673858 1.17386 0 2 0ZM10.4467 1.277C10.364 1.11347 10.194 1 10 1H2C1.80603 1 1.63599 1.11345 1.5533 1.27695L6.00004 4.38967L10.4467 1.277ZM1.5 2.4603L5.71331 5.40962C5.88547 5.53013 6.11461 5.53013 6.28677 5.40962L10.5 2.46036V7.5C10.5 7.77386 10.2739 8 10 8H2C1.72614 8 1.5 7.77386 1.5 7.5V2.4603Z" fill="white"/>
</mask>
<g mask="url(#mask0_928_1550)">
</g>
</svg>
