<svg width="11" height="12" viewBox="0 0 11 12" fill="none" xmlns="http://www.w3.org/2000/svg">
<path fill-rule="evenodd" clip-rule="evenodd" d="M0.938909 11.3389L2.97782 9.3H9.35C10.2613 9.3 11 8.56127 11 7.65V2.15C11 1.23873 10.2613 0.5 9.35 0.5H1.65C0.73873 0.5 0 1.23873 0 2.15V10.95C0 11.44 0.592428 11.6854 0.938909 11.3389ZM2.75 8.2C2.60413 8.2 2.46424 8.25795 2.36109 8.36109L1.1 9.62218V2.15C1.1 1.84624 1.34624 1.6 1.65 1.6H9.35C9.65376 1.6 9.9 1.84624 9.9 2.15V7.65C9.9 7.95376 9.65376 8.2 9.35 8.2H2.75Z" fill="#9AA3AB"/>
</svg>
