<svg width="22" height="22" viewBox="0 0 22 22" fill="none" xmlns="http://www.w3.org/2000/svg">
<path d="M7.5 15.5C7.85469 14.8857 8.36489 14.3755 8.97929 14.0209C9.59368 13.6663 10.2906 13.4798 11 13.48C12.496 13.48 13.801 14.292 14.5 15.5M13 9C13 9.53043 12.7893 10.0391 12.4142 10.4142C12.0391 10.7893 11.5304 11 11 11C10.4696 11 9.96086 10.7893 9.58579 10.4142C9.21071 10.0391 9 9.53043 9 9C9 8.46957 9.21071 7.96086 9.58579 7.58579C9.96086 7.21071 10.4696 7 11 7C11.5304 7 12.0391 7.21071 12.4142 7.58579C12.7893 7.96086 13 8.46957 13 9Z" stroke="black" stroke-width="1.5" stroke-linecap="round" stroke-linejoin="round"/>
<path d="M21 12.967V9.033C18.143 9.033 16.286 5.93 17.732 3.467L14.268 1.5C12.804 3.994 9.198 3.994 7.734 1.5L4.27 3.467C5.716 5.93 3.857 9.033 1 9.033V12.967C3.857 12.967 5.714 16.07 4.268 18.533L7.732 20.5C9.197 18.005 12.805 18.005 14.27 20.5L17.734 18.533C16.287 16.07 18.144 12.967 21 12.967Z" stroke="black" stroke-width="1.5" stroke-linecap="round" stroke-linejoin="round"/>
</svg>
