<svg width="18" height="13" viewBox="0 0 18 13" fill="none" xmlns="http://www.w3.org/2000/svg">
<path d="M9 3.9C9.65099 3.9 10.2753 4.17393 10.7356 4.66152C11.1959 5.14912 11.4545 5.81044 11.4545 6.5C11.4545 7.18956 11.1959 7.85088 10.7356 8.33848C10.2753 8.82607 9.65099 9.1 9 9.1C8.34901 9.1 7.72469 8.82607 7.26437 8.33848C6.80406 7.85088 6.54545 7.18956 6.54545 6.5C6.54545 5.81044 6.80406 5.14912 7.26437 4.66152C7.72469 4.17393 8.34901 3.9 9 3.9ZM9 0C13.0909 0 16.5845 2.69533 18 6.5C16.5845 10.3047 13.0909 13 9 13C4.90909 13 1.41545 10.3047 0 6.5C1.41545 2.69533 4.90909 0 9 0ZM1.78364 6.5C2.44494 7.93027 3.4718 9.13531 4.74748 9.97815C6.02317 10.821 7.49651 11.2678 9 11.2678C10.5035 11.2678 11.9768 10.821 13.2525 9.97815C14.5282 9.13531 15.5551 7.93027 16.2164 6.5C15.5551 5.06973 14.5282 3.86469 13.2525 3.02185C11.9768 2.17901 10.5035 1.73219 9 1.73219C7.49651 1.73219 6.02317 2.17901 4.74748 3.02185C3.4718 3.86469 2.44494 5.06973 1.78364 6.5Z" fill="#C3C3C3"/>
</svg>
