<svg width="18" height="17" viewBox="0 0 18 17" fill="none" xmlns="http://www.w3.org/2000/svg">
<path d="M2.25 1.875C2.25 1.25273 1.74727 0.75 1.125 0.75C0.502734 0.75 0 1.25273 0 1.875V13.6875C0 15.2414 1.25859 16.5 2.8125 16.5H16.875C17.4973 16.5 18 15.9973 18 15.375C18 14.7527 17.4973 14.25 16.875 14.25H2.8125C2.50312 14.25 2.25 13.9969 2.25 13.6875V1.875ZM5.625 12H15.75C16.3723 12 16.875 11.4973 16.875 10.875V8.47734C16.875 8.21016 16.7801 7.95 16.6043 7.74609L14.291 5.04609C13.8656 4.54688 13.1062 4.51875 12.6422 4.98281L11.9039 5.72109C11.5523 6.07266 10.9758 6.04453 10.6594 5.66484L9.28125 4.0125C8.83828 3.48164 8.02617 3.47109 7.56914 3.99141L4.77773 7.18359C4.59844 7.3875 4.5 7.65117 4.5 7.92539V10.8785C4.5 11.5008 5.00273 12.0035 5.625 12.0035V12Z" fill="black"/>
</svg>
