<svg width="20" height="20" viewBox="0 0 20 20" fill="none" xmlns="http://www.w3.org/2000/svg">
<path d="M17.9335 7.92891C17.9335 7.72529 17.8526 7.53001 17.7086 7.38603C17.5646 7.24204 17.3694 7.16116 17.1657 7.16116C16.9621 7.16116 16.7668 7.24204 16.6229 7.38603C16.4789 7.53001 16.398 7.72529 16.398 7.92891H17.9335ZM3.60202 7.92891C3.60202 7.72529 3.52113 7.53001 3.37715 7.38603C3.23317 7.24204 3.03788 7.16116 2.83426 7.16116C2.63064 7.16116 2.43536 7.24204 2.29138 7.38603C2.14739 7.53001 2.0665 7.72529 2.0665 7.92891H3.60202ZM18.6705 10.5188C18.7408 10.5942 18.8256 10.6547 18.9198 10.6967C19.0139 10.7387 19.1156 10.7612 19.2187 10.7631C19.3218 10.7649 19.4242 10.7459 19.5198 10.7073C19.6154 10.6687 19.7022 10.6112 19.7751 10.5383C19.848 10.4654 19.9055 10.3786 19.9441 10.283C19.9827 10.1874 20.0017 10.085 19.9999 9.98187C19.9981 9.87879 19.9755 9.77712 19.9335 9.68294C19.8916 9.58877 19.8311 9.50401 19.7556 9.43372L18.6705 10.5188ZM10 0.763176L10.5425 0.220627C10.3986 0.0768512 10.2035 -0.00390625 10 -0.00390625C9.79654 -0.00390625 9.60141 0.0768512 9.45745 0.220627L10 0.763176ZM0.24436 9.43372C0.168929 9.50401 0.108427 9.58877 0.0664647 9.68294C0.0245022 9.77712 0.00193834 9.87879 0.000119485 9.98187C-0.00169937 10.085 0.0172639 10.1874 0.055878 10.283C0.0944921 10.3786 0.151966 10.4654 0.224871 10.5383C0.297776 10.6112 0.384619 10.6687 0.480218 10.7073C0.575817 10.7459 0.678215 10.7649 0.781302 10.7631C0.884389 10.7612 0.986054 10.7387 1.08023 10.6967C1.17441 10.6547 1.25917 10.5942 1.32946 10.5188L0.24436 9.43372ZM4.88162 19.9571H15.1184V18.4216H4.88162V19.9571ZM17.9335 17.142V7.92891H16.398V17.142H17.9335ZM3.60202 17.142V7.92891H2.0665V17.142H3.60202ZM19.7556 9.43372L10.5425 0.220627L9.45745 1.30572L18.6705 10.5188L19.7556 9.43372ZM9.45745 0.220627L0.24436 9.43372L1.32946 10.5188L10.5425 1.30572L9.45745 0.220627ZM15.1184 19.9571C15.865 19.9571 16.581 19.6605 17.109 19.1326C17.6369 18.6047 17.9335 17.8886 17.9335 17.142H16.398C16.398 17.8483 15.8247 18.4216 15.1184 18.4216V19.9571ZM4.88162 18.4216C4.17528 18.4216 3.60202 17.8483 3.60202 17.142H2.0665C2.0665 17.8886 2.3631 18.6047 2.89103 19.1326C3.41897 19.6605 4.135 19.9571 4.88162 19.9571V18.4216Z" fill="#B1B1B1"/>
</svg>
