<svg width="13" height="13" viewBox="0 0 13 13" fill="none" xmlns="http://www.w3.org/2000/svg">
<g clip-path="url(#clip0_1018_885)">
<path d="M0.433594 0V3.9C0.433594 4.35971 0.616212 4.80059 0.941275 5.12565C1.26634 5.45071 1.70722 5.63333 2.16693 5.63333C2.62664 5.63333 3.06752 5.45071 3.39258 5.12565C3.71764 4.80059 3.90026 4.35971 3.90026 3.9V1.3C3.90026 1.07015 3.80895 0.849706 3.64642 0.687174C3.48389 0.524643 3.26345 0.433333 3.03359 0.433333C2.80374 0.433333 2.5833 0.524643 2.42077 0.687174C2.25824 0.849706 2.16693 1.07015 2.16693 1.3V4.33333M5.20026 0.433333H10.8336C11.0634 0.433333 11.2839 0.524643 11.4464 0.687174C11.609 0.849706 11.7003 1.07015 11.7003 1.3V11.7C11.7003 11.9299 11.609 12.1503 11.4464 12.3128C11.2839 12.4754 11.0634 12.5667 10.8336 12.5667H2.16693C1.93707 12.5667 1.71663 12.4754 1.5541 12.3128C1.39157 12.1503 1.30026 11.9299 1.30026 11.7V6.93333M9.53359 3.9H6.06693M9.53359 6.5H6.06693M9.53359 9.1H3.46693" stroke="black"/>
</g>
<defs>
<clipPath id="clip0_1018_885">
<rect width="13" height="13" fill="white"/>
</clipPath>
</defs>
</svg>
