<svg width="16" height="17" viewBox="0 0 16 17" fill="none" xmlns="http://www.w3.org/2000/svg">
<path d="M1.616 16.5C1.15533 16.5 0.771 16.346 0.463 16.038C0.155 15.73 0.000666667 15.3453 0 14.884V2.116C0 1.65533 0.154333 1.271 0.463 0.963C0.771667 0.655 1.156 0.500667 1.616 0.5H8.019V1.5H1.616C1.462 1.5 1.32067 1.564 1.192 1.692C1.06333 1.82 0.999333 1.96133 1 2.116V14.885C1 15.0383 1.064 15.1793 1.192 15.308C1.32 15.4367 1.461 15.5007 1.615 15.5H8.019V16.5H1.616ZM12.462 12.039L11.76 11.319L14.079 9H5.192V8H14.079L11.759 5.68L12.461 4.962L16 8.5L12.462 12.039Z" fill="black"/>
</svg>
