<svg width="20" height="17" viewBox="0 0 20 17" fill="none" xmlns="http://www.w3.org/2000/svg">
<path d="M19 8.5V3.5C19 2.96957 18.7893 2.46086 18.4142 2.08579C18.0391 1.71071 17.5304 1.5 17 1.5H3C2.46957 1.5 1.96086 1.71071 1.58579 2.08579C1.21071 2.46086 1 2.96957 1 3.5V9.5C1 10.0304 1.21071 10.5391 1.58579 10.9142C1.96086 11.2893 2.46957 11.5 3 11.5H10M12.5 14L14.5 16L18.5 12M10 6.51L10.01 6.499M14 6.51L14.01 6.499M6 6.51L6.01 6.499" stroke="black" stroke-width="1.5" stroke-linecap="round" stroke-linejoin="round"/>
</svg>
