<svg width="26" height="26" viewBox="0 0 26 26" fill="none" xmlns="http://www.w3.org/2000/svg">
<path d="M4.84911 8.41581C4.45161 8.41605 4.07046 8.57407 3.78938 8.85515C3.50831 9.13622 3.35029 9.51737 3.35005 9.91487L3.34368 15.366C3.3456 15.7632 3.50296 16.1439 3.78209 16.4266C4.06355 16.7076 4.44506 16.8653 4.84275 16.865L20.4337 16.8728C20.8329 16.8718 21.2154 16.7128 21.4976 16.4305C21.7799 16.1483 21.9389 15.7658 21.9399 15.3667L21.9328 9.91487C21.934 9.71768 21.8961 9.5222 21.8212 9.33978C21.7462 9.15737 21.6359 8.99163 21.4964 8.85219C21.357 8.71275 21.1913 8.60237 21.0088 8.52747C20.8264 8.45256 20.6309 8.4146 20.4337 8.41581H4.84911ZM6.58859 11.7392C6.58832 11.8052 6.60113 11.8706 6.62626 11.9317C6.65139 11.9927 6.68836 12.0481 6.73504 12.0948C6.78171 12.1415 6.83716 12.1785 6.8982 12.2036C6.95923 12.2287 7.02464 12.2415 7.09064 12.2413C7.22206 12.2359 7.34665 12.1812 7.43965 12.0882C7.53266 11.9952 7.58729 11.8706 7.59269 11.7392C7.58562 10.9543 7.58562 10.1906 7.59976 9.41283L9.36752 9.41283L9.36753 10.6856C9.36588 10.7511 9.37756 10.8162 9.40185 10.877C9.42615 10.9378 9.46254 10.993 9.50884 11.0393C9.55513 11.0856 9.61036 11.122 9.67115 11.1463C9.73195 11.1706 9.79705 11.1822 9.8625 11.1806C9.9285 11.1809 9.99391 11.1681 10.0549 11.1429C10.116 11.1178 10.1714 11.0808 10.2181 11.0342C10.2648 10.9875 10.3017 10.932 10.3269 10.871C10.352 10.81 10.3648 10.7446 10.3645 10.6785C10.3575 10.2614 10.3645 9.83002 10.3716 9.41283H12.1394L12.1465 11.7392C12.1478 11.8696 12.2005 11.9942 12.2932 12.086C12.3859 12.1777 12.511 12.2292 12.6414 12.2292C12.7718 12.2292 12.897 12.1777 12.9897 12.086C13.0824 11.9942 13.1351 11.8696 13.1364 11.7392C13.1435 10.9543 13.1435 10.1906 13.1435 9.41283L14.9112 9.41283V10.6856C14.9158 10.8191 14.9715 10.9457 15.0668 11.0392C15.1585 11.132 15.2828 11.1853 15.4133 11.1877C15.5456 11.1849 15.6716 11.1311 15.7652 11.0375C15.8587 10.944 15.9125 10.8179 15.9153 10.6856V9.41283L17.6972 9.41283L17.6902 11.7392C17.6902 11.8051 17.7032 11.8704 17.7284 11.9313C17.7536 11.9922 17.7906 12.0476 17.8372 12.0942C17.8838 12.1408 17.9392 12.1778 18.0001 12.203C18.061 12.2283 18.1263 12.2413 18.1922 12.2413C18.2581 12.2413 18.3234 12.2283 18.3843 12.203C18.4453 12.1778 18.5006 12.1408 18.5472 12.0942C18.5938 12.0476 18.6308 11.9922 18.656 11.9313C18.6813 11.8704 18.6943 11.8051 18.6943 11.7392C18.6872 10.9543 18.6872 10.1906 18.7013 9.41283H20.4408C20.5717 9.41414 20.6968 9.4667 20.7894 9.55925C20.8819 9.65179 20.9345 9.77693 20.9358 9.9078V15.3667C20.9361 15.4327 20.9233 15.4981 20.8981 15.5591C20.873 15.6201 20.836 15.6756 20.7893 15.7223C20.7427 15.7689 20.6872 15.8059 20.6262 15.831C20.5652 15.8562 20.4998 15.869 20.4337 15.8687L4.84911 15.8687C4.78212 15.8694 4.71567 15.8566 4.65372 15.8311C4.59178 15.8056 4.53558 15.7679 4.48849 15.7202C4.39656 15.6256 4.34573 15.4986 4.34707 15.3667L4.34707 9.9078C4.35085 9.77772 4.40421 9.65401 4.49623 9.56199C4.58825 9.46997 4.71196 9.41661 4.84204 9.41283L6.59567 9.41283L6.58859 11.7392Z" fill="black"/>
<path d="M18.2284 8.41504L18.1719 8.41504C18.1789 8.40797 18.1789 8.40797 18.1931 8.40797C18.2072 8.40797 18.2214 8.40797 18.2284 8.41504Z" fill="black"/>
</svg>
