<svg width="25" height="25" viewBox="0 0 25 25" fill="none" xmlns="http://www.w3.org/2000/svg">
<path d="M2.46732 7.4999C3.1756 6.91105 4.0811 6.61319 5.00065 6.66657C5.98701 6.59672 6.9635 6.90094 7.73565 7.51866C8.50779 8.13638 9.01895 9.02227 9.16732 9.9999L10.4673 17.7999C9.9413 17.5619 9.36831 17.4457 8.79112 17.4602C8.21393 17.4746 7.64745 17.6192 7.13398 17.8832L5.80065 9.9999C5.56239 9.29539 5.11643 8.6795 4.52146 8.23327C3.92649 7.78704 3.21037 7.53137 2.46732 7.4999ZM12.4673 18.7332C13.1033 18.2206 13.8423 17.8511 14.634 17.6499L16.6673 4.9999C16.9056 4.29539 17.3515 3.6795 17.9465 3.23327C18.5415 2.78704 19.2576 2.53137 20.0007 2.4999C19.301 1.91906 18.4089 1.62171 17.5007 1.66657C16.5143 1.59672 15.5378 1.90094 14.7657 2.51866C13.9935 3.13638 13.4824 4.02227 13.334 4.9999L11.1673 17.9832C11.6323 18.1749 12.0673 18.4282 12.4673 18.7332ZM19.6673 17.8999C19.929 17.6866 20.2073 17.4982 20.5007 17.3332L21.6673 9.9999C21.9056 9.29539 22.3515 8.6795 22.9465 8.23327C23.5415 7.78704 24.2576 7.53137 25.0007 7.4999C24.301 6.91906 23.4089 6.62171 22.5007 6.66657C21.5143 6.59672 20.5378 6.90094 19.7657 7.51866C18.9935 8.13638 18.4824 9.02227 18.334 9.9999L17.2173 16.6666C18.1224 16.8715 18.9636 17.2949 19.6673 17.8999ZM23.334 19.9999C22.6096 19.9832 21.9041 20.2322 21.3507 20.6999L20.5673 21.3832C20.3381 21.5882 20.0415 21.7015 19.734 21.7015C19.4265 21.7015 19.1298 21.5882 18.9007 21.3832C18.6507 21.1832 18.4173 20.9499 18.1673 20.7332C17.5961 20.2514 16.8729 19.9872 16.1257 19.9872C15.3784 19.9872 14.6552 20.2514 14.084 20.7332C13.8173 20.9499 13.5673 21.1999 13.3007 21.4166C13.0715 21.6216 12.7748 21.7349 12.4673 21.7349C12.1598 21.7349 11.8632 21.6216 11.634 21.4166C11.3673 21.1999 11.1173 20.9499 10.8507 20.7332C10.2807 20.2558 9.56084 19.9942 8.81732 19.9942C8.07379 19.9942 7.35398 20.2558 6.78398 20.7332C6.53398 20.9499 6.30065 21.1832 6.05065 21.3832C5.902 21.5024 5.73244 21.5929 5.55065 21.6499C5.31138 21.7033 5.06229 21.6929 4.8283 21.6197C4.59431 21.5466 4.38363 21.4133 4.21732 21.2332C3.80477 20.8766 3.36449 20.5534 2.90065 20.2666C2.55659 20.07 2.16293 19.9774 1.76732 19.9999H1.66732C1.4463 19.9999 1.23434 20.0877 1.07806 20.244C0.921782 20.4003 0.833984 20.6122 0.833984 20.8332C0.833984 21.0543 0.921782 21.2662 1.07806 21.4225C1.23434 21.5788 1.4463 21.6666 1.66732 21.6666C2.07728 21.6907 2.46091 21.8765 2.73398 22.1832L3.33398 22.6166C3.87824 23.0622 4.55536 23.3139 5.25852 23.332C5.96168 23.3501 6.65085 23.1336 7.21732 22.7166C7.53398 22.4832 7.81732 22.1832 8.13398 21.9332C8.36316 21.7283 8.65985 21.6149 8.96732 21.6149C9.27479 21.6149 9.57148 21.7283 9.80065 21.9332L10.4507 22.5166C11.0107 23.0162 11.7292 23.3019 12.4794 23.3232C13.2295 23.3446 13.9631 23.1002 14.5506 22.6332C14.8006 22.4499 15.0007 22.2166 15.2507 22.0166C15.3686 21.8962 15.5091 21.8002 15.6642 21.7341C15.8193 21.668 15.9858 21.6332 16.1544 21.6315C16.3229 21.6297 16.4901 21.6613 16.6465 21.7242C16.8028 21.7871 16.9453 21.8803 17.0657 21.9982L17.084 22.0166L17.734 22.5999C18.1332 22.9383 18.6105 23.1718 19.1226 23.2795C19.6347 23.3872 20.1656 23.3655 20.6673 23.2166C21.3047 23.044 21.8817 22.6978 22.334 22.2166C22.5922 21.9213 22.9463 21.7265 23.334 21.6666C23.555 21.6666 23.767 21.5788 23.9232 21.4225C24.0795 21.2662 24.1673 21.0543 24.1673 20.8332C24.1673 20.6122 24.0795 20.4003 23.9232 20.244C23.767 20.0877 23.555 19.9999 23.334 19.9999Z" fill="#B1B1B1"/>
</svg>
